<svg width="260" height="260" viewBox="0 0 260 260" fill="none" xmlns="http://www.w3.org/2000/svg">
<circle cx="130" cy="130" r="130" fill="#E3E3E3"/>
<g clip-path="url(#clip0)">
<rect width="225" height="225" transform="translate(17 17)" fill="white"/>
<path d="M241.5 199.5L189.5 185.5L226 152L241.5 199.5Z" fill="#FE9B05"/>
<rect x="64" y="23" width="174" height="173" rx="86.5" fill="#FE9B05"/>
<path d="M24.5 240.5L39.5 195L74.5 227L24.5 240.5Z" fill="#1C6AFE"/>
<rect x="27" y="64" width="174" height="173" rx="86.5" fill="#1C6AFE"/>
<path d="M62.5332 138.795H60.1992V144H57.2695V129.781H62.5527C64.2324 129.781 65.528 130.156 66.4395 130.904C67.3509 131.653 67.8066 132.711 67.8066 134.078C67.8066 135.048 67.5951 135.859 67.1719 136.51C66.7552 137.154 66.1204 137.669 65.2676 138.053L68.3438 143.863V144H65.1992L62.5332 138.795ZM60.1992 136.422H62.5625C63.2982 136.422 63.8678 136.236 64.2715 135.865C64.6751 135.488 64.877 134.97 64.877 134.312C64.877 133.642 64.6849 133.115 64.3008 132.73C63.9232 132.346 63.3405 132.154 62.5527 132.154H60.1992V136.422ZM72.6113 134.586C73.36 133.688 74.3008 133.238 75.4336 133.238C77.7253 133.238 78.8874 134.57 78.9199 137.232V144H76.0977V137.311C76.0977 136.705 75.9674 136.259 75.707 135.973C75.4466 135.68 75.0137 135.533 74.4082 135.533C73.5814 135.533 72.9824 135.852 72.6113 136.49V144H69.7891V129H72.6113V134.586ZM87.1719 144C87.0417 143.746 86.9473 143.43 86.8887 143.053C86.2051 143.814 85.3164 144.195 84.2227 144.195C83.1875 144.195 82.3281 143.896 81.6445 143.297C80.9674 142.698 80.6289 141.943 80.6289 141.031C80.6289 139.911 81.0423 139.052 81.8691 138.453C82.7025 137.854 83.9036 137.551 85.4727 137.545H86.7715V136.939C86.7715 136.451 86.6445 136.061 86.3906 135.768C86.1432 135.475 85.7493 135.328 85.209 135.328C84.7337 135.328 84.3594 135.442 84.0859 135.67C83.819 135.898 83.6855 136.21 83.6855 136.607H80.8633C80.8633 135.995 81.0521 135.429 81.4297 134.908C81.8073 134.387 82.3411 133.98 83.0312 133.688C83.7214 133.388 84.4961 133.238 85.3555 133.238C86.6576 133.238 87.6895 133.567 88.4512 134.225C89.2194 134.876 89.6035 135.794 89.6035 136.979V141.559C89.61 142.561 89.75 143.32 90.0234 143.834V144H87.1719ZM84.8379 142.037C85.2546 142.037 85.6387 141.946 85.9902 141.764C86.3418 141.575 86.6022 141.324 86.7715 141.012V139.195H85.7168C84.304 139.195 83.5521 139.684 83.4609 140.66L83.4512 140.826C83.4512 141.178 83.5749 141.467 83.8223 141.695C84.0697 141.923 84.4082 142.037 84.8379 142.037ZM97.4941 141.08C97.4941 140.735 97.3216 140.465 96.9766 140.27C96.638 140.068 96.0911 139.889 95.3359 139.732C92.8229 139.205 91.5664 138.137 91.5664 136.529C91.5664 135.592 91.9538 134.811 92.7285 134.186C93.5098 133.554 94.5286 133.238 95.7852 133.238C97.1263 133.238 98.1973 133.554 98.998 134.186C99.8053 134.817 100.209 135.637 100.209 136.646H97.3867C97.3867 136.243 97.2565 135.911 96.9961 135.65C96.7357 135.383 96.3288 135.25 95.7754 135.25C95.3001 135.25 94.9323 135.357 94.6719 135.572C94.4115 135.787 94.2812 136.061 94.2812 136.393C94.2812 136.705 94.4277 136.959 94.7207 137.154C95.0202 137.343 95.5215 137.509 96.2246 137.652C96.9277 137.789 97.5202 137.945 98.002 138.121C99.4928 138.668 100.238 139.615 100.238 140.963C100.238 141.926 99.8249 142.708 98.998 143.307C98.1712 143.899 97.1035 144.195 95.7949 144.195C94.9095 144.195 94.1217 144.039 93.4316 143.727C92.748 143.408 92.2109 142.975 91.8203 142.428C91.4297 141.874 91.2344 141.279 91.2344 140.641H93.9102C93.9362 141.142 94.1217 141.526 94.4668 141.793C94.8118 142.06 95.2741 142.193 95.8535 142.193C96.3939 142.193 96.8008 142.092 97.0742 141.891C97.3542 141.682 97.4941 141.412 97.4941 141.08ZM111.576 138.814C111.576 140.442 111.205 141.747 110.463 142.73C109.727 143.707 108.731 144.195 107.475 144.195C106.407 144.195 105.544 143.824 104.887 143.082V148.062H102.064V133.434H104.682L104.779 134.469C105.463 133.648 106.355 133.238 107.455 133.238C108.757 133.238 109.77 133.72 110.492 134.684C111.215 135.647 111.576 136.975 111.576 138.668V138.814ZM108.754 138.609C108.754 137.626 108.578 136.868 108.227 136.334C107.882 135.8 107.377 135.533 106.713 135.533C105.827 135.533 105.219 135.872 104.887 136.549V140.875C105.232 141.572 105.847 141.92 106.732 141.92C108.08 141.92 108.754 140.816 108.754 138.609ZM116.088 134.586C116.837 133.688 117.777 133.238 118.91 133.238C121.202 133.238 122.364 134.57 122.396 137.232V144H119.574V137.311C119.574 136.705 119.444 136.259 119.184 135.973C118.923 135.68 118.49 135.533 117.885 135.533C117.058 135.533 116.459 135.852 116.088 136.49V144H113.266V129H116.088V134.586ZM124.086 138.619C124.086 137.571 124.288 136.637 124.691 135.816C125.095 134.996 125.674 134.361 126.43 133.912C127.191 133.463 128.074 133.238 129.076 133.238C130.502 133.238 131.664 133.674 132.562 134.547C133.467 135.419 133.972 136.604 134.076 138.102L134.096 138.824C134.096 140.445 133.643 141.747 132.738 142.73C131.833 143.707 130.619 144.195 129.096 144.195C127.572 144.195 126.355 143.707 125.443 142.73C124.538 141.754 124.086 140.426 124.086 138.746V138.619ZM126.908 138.824C126.908 139.827 127.097 140.595 127.475 141.129C127.852 141.656 128.393 141.92 129.096 141.92C129.779 141.92 130.313 141.66 130.697 141.139C131.081 140.611 131.273 139.771 131.273 138.619C131.273 137.636 131.081 136.874 130.697 136.334C130.313 135.794 129.773 135.523 129.076 135.523C128.386 135.523 127.852 135.794 127.475 136.334C127.097 136.868 126.908 137.698 126.908 138.824Z" fill="white"/>
<path d="M98.9727 158.154H94.6172V170H91.6875V158.154H87.3906V155.781H98.9727V158.154ZM105.76 162.08C105.376 162.028 105.037 162.002 104.744 162.002C103.676 162.002 102.977 162.363 102.645 163.086V170H99.8223V159.434H102.488L102.566 160.693C103.133 159.723 103.917 159.238 104.92 159.238C105.232 159.238 105.525 159.281 105.799 159.365L105.76 162.08ZM112.957 170C112.827 169.746 112.732 169.43 112.674 169.053C111.99 169.814 111.102 170.195 110.008 170.195C108.973 170.195 108.113 169.896 107.43 169.297C106.753 168.698 106.414 167.943 106.414 167.031C106.414 165.911 106.827 165.052 107.654 164.453C108.488 163.854 109.689 163.551 111.258 163.545H112.557V162.939C112.557 162.451 112.43 162.061 112.176 161.768C111.928 161.475 111.535 161.328 110.994 161.328C110.519 161.328 110.145 161.442 109.871 161.67C109.604 161.898 109.471 162.21 109.471 162.607H106.648C106.648 161.995 106.837 161.429 107.215 160.908C107.592 160.387 108.126 159.98 108.816 159.688C109.507 159.388 110.281 159.238 111.141 159.238C112.443 159.238 113.475 159.567 114.236 160.225C115.005 160.876 115.389 161.794 115.389 162.979V167.559C115.395 168.561 115.535 169.32 115.809 169.834V170H112.957ZM110.623 168.037C111.04 168.037 111.424 167.946 111.775 167.764C112.127 167.575 112.387 167.324 112.557 167.012V165.195H111.502C110.089 165.195 109.337 165.684 109.246 166.66L109.236 166.826C109.236 167.178 109.36 167.467 109.607 167.695C109.855 167.923 110.193 168.037 110.623 168.037ZM120.154 159.434L120.242 160.654C120.997 159.71 122.01 159.238 123.279 159.238C124.399 159.238 125.232 159.567 125.779 160.225C126.326 160.882 126.606 161.865 126.619 163.174V170H123.797V163.242C123.797 162.643 123.667 162.21 123.406 161.943C123.146 161.67 122.713 161.533 122.107 161.533C121.313 161.533 120.717 161.872 120.32 162.549V170H117.498V159.434H120.154ZM134.49 167.08C134.49 166.735 134.318 166.465 133.973 166.27C133.634 166.068 133.087 165.889 132.332 165.732C129.819 165.205 128.562 164.137 128.562 162.529C128.562 161.592 128.95 160.811 129.725 160.186C130.506 159.554 131.525 159.238 132.781 159.238C134.122 159.238 135.193 159.554 135.994 160.186C136.801 160.817 137.205 161.637 137.205 162.646H134.383C134.383 162.243 134.253 161.911 133.992 161.65C133.732 161.383 133.325 161.25 132.771 161.25C132.296 161.25 131.928 161.357 131.668 161.572C131.408 161.787 131.277 162.061 131.277 162.393C131.277 162.705 131.424 162.959 131.717 163.154C132.016 163.343 132.518 163.509 133.221 163.652C133.924 163.789 134.516 163.945 134.998 164.121C136.489 164.668 137.234 165.615 137.234 166.963C137.234 167.926 136.821 168.708 135.994 169.307C135.167 169.899 134.1 170.195 132.791 170.195C131.906 170.195 131.118 170.039 130.428 169.727C129.744 169.408 129.207 168.975 128.816 168.428C128.426 167.874 128.23 167.279 128.23 166.641H130.906C130.932 167.142 131.118 167.526 131.463 167.793C131.808 168.06 132.27 168.193 132.85 168.193C133.39 168.193 133.797 168.092 134.07 167.891C134.35 167.682 134.49 167.412 134.49 167.08ZM142.039 170H139.207V155H142.039V170ZM150.496 170C150.366 169.746 150.271 169.43 150.213 169.053C149.529 169.814 148.641 170.195 147.547 170.195C146.512 170.195 145.652 169.896 144.969 169.297C144.292 168.698 143.953 167.943 143.953 167.031C143.953 165.911 144.367 165.052 145.193 164.453C146.027 163.854 147.228 163.551 148.797 163.545H150.096V162.939C150.096 162.451 149.969 162.061 149.715 161.768C149.467 161.475 149.074 161.328 148.533 161.328C148.058 161.328 147.684 161.442 147.41 161.67C147.143 161.898 147.01 162.21 147.01 162.607H144.188C144.188 161.995 144.376 161.429 144.754 160.908C145.132 160.387 145.665 159.98 146.355 159.688C147.046 159.388 147.82 159.238 148.68 159.238C149.982 159.238 151.014 159.567 151.775 160.225C152.544 160.876 152.928 161.794 152.928 162.979V167.559C152.934 168.561 153.074 169.32 153.348 169.834V170H150.496ZM148.162 168.037C148.579 168.037 148.963 167.946 149.314 167.764C149.666 167.575 149.926 167.324 150.096 167.012V165.195H149.041C147.628 165.195 146.876 165.684 146.785 166.66L146.775 166.826C146.775 167.178 146.899 167.467 147.146 167.695C147.394 167.923 147.732 168.037 148.162 168.037ZM158.475 156.836V159.434H160.281V161.504H158.475V166.777C158.475 167.168 158.549 167.448 158.699 167.617C158.849 167.786 159.135 167.871 159.559 167.871C159.871 167.871 160.148 167.848 160.389 167.803V169.941C159.835 170.111 159.266 170.195 158.68 170.195C156.701 170.195 155.691 169.196 155.652 167.197V161.504H154.109V159.434H155.652V156.836H158.475ZM166.717 170.195C165.167 170.195 163.904 169.72 162.928 168.77C161.958 167.819 161.473 166.553 161.473 164.971V164.697C161.473 163.636 161.678 162.689 162.088 161.855C162.498 161.016 163.077 160.371 163.826 159.922C164.581 159.466 165.441 159.238 166.404 159.238C167.85 159.238 168.986 159.694 169.812 160.605C170.646 161.517 171.062 162.809 171.062 164.482V165.635H164.334C164.425 166.325 164.699 166.878 165.154 167.295C165.617 167.712 166.199 167.92 166.902 167.92C167.99 167.92 168.839 167.526 169.451 166.738L170.838 168.291C170.415 168.89 169.842 169.359 169.119 169.697C168.396 170.029 167.596 170.195 166.717 170.195ZM166.395 161.523C165.835 161.523 165.379 161.712 165.027 162.09C164.682 162.467 164.461 163.008 164.363 163.711H168.289V163.486C168.276 162.861 168.107 162.38 167.781 162.041C167.456 161.696 166.993 161.523 166.395 161.523Z" fill="white"/>
</g>
<defs>
<clipPath id="clip0">
<rect width="225" height="225" fill="white" transform="translate(17 17)"/>
</clipPath>
</defs>
</svg>
